<?xml version="1.0" encoding="utf-8"?>
<!-- Generator: Adobe Illustrator 23.0.4, SVG Export Plug-In . SVG Version: 6.00 Build 0)  -->
<!DOCTYPE svg PUBLIC "-//W3C//DTD SVG 1.1//EN" "http://www.w3.org/Graphics/SVG/1.1/DTD/svg11.dtd" [
	<!ENTITY ns_extend "http://ns.adobe.com/Extensibility/1.0/">
	<!ENTITY ns_ai "http://ns.adobe.com/AdobeIllustrator/10.0/">
	<!ENTITY ns_graphs "http://ns.adobe.com/Graphs/1.0/">
	<!ENTITY ns_vars "http://ns.adobe.com/Variables/1.0/">
	<!ENTITY ns_imrep "http://ns.adobe.com/ImageReplacement/1.0/">
	<!ENTITY ns_sfw "http://ns.adobe.com/SaveForWeb/1.0/">
	<!ENTITY ns_custom "http://ns.adobe.com/GenericCustomNamespace/1.0/">
	<!ENTITY ns_adobe_xpath "http://ns.adobe.com/XPath/1.0/">
]>
<svg version="1.1" id="Layer_1" xmlns:x="&ns_extend;" xmlns:i="&ns_ai;" xmlns:graph="&ns_graphs;"
	 xmlns="http://www.w3.org/2000/svg" xmlns:xlink="http://www.w3.org/1999/xlink" x="0px" y="0px" viewBox="0 0 350 350"
	 style="enable-background:new 0 0 350 350;" xml:space="preserve">
<style type="text/css">
	.st0{fill:#131720;}
	.st1{fill:#BC1010;}
</style>
<metadata>
	<sfw  xmlns="&ns_sfw;">
		<slices></slices>
		<sliceSourceBounds  bottomLeftOrigin="true" height="2525.5" width="2316.8" x="-983" y="-1252.1"></sliceSourceBounds>
	</sfw>
</metadata>
<g>
	<g>
		<path class="st0" d="M321.5,7c11.9,0,21.5,9.7,21.5,21.5v292.9c0,11.9-9.7,21.5-21.5,21.5h-293C16.7,343,7,333.3,7,321.5v-293
			C7,16.7,16.7,7,28.5,7H321.5 M321.5,0h-293C12.8,0,0,12.8,0,28.5v292.9C0,337.2,12.8,350,28.5,350h292.9
			c15.8,0,28.5-12.8,28.5-28.5v-293C350,12.8,337.2,0,321.5,0L321.5,0z"/>
	</g>
</g>
<g>
	<path class="st0" d="M219.1,165.4c1.7-1.7,1.7-4.5,0-6.3c-1.7-1.7-4.5-1.7-6.3,0c-1.7,1.7-1.7,4.5,0,6.3
		C214.6,167.2,217.4,167.2,219.1,165.4z"/>
	<path class="st0" d="M66,288.4H284c1.8,0,3.4-1.1,4.1-2.7c0.7-1.7,0.3-3.6-1-4.8L69.2,62.9c-1.3-1.3-3.2-1.6-4.8-1
		c-1.7,0.7-2.7,2.3-2.7,4.1V284C61.6,286.4,63.6,288.4,66,288.4z M70.5,76.7l35.6,35.6l-9.4,9.4c-1.7,1.7-1.7,4.5,0,6.3
		c1.7,1.7,4.5,1.7,6.3,0l9.4-9.4l18.8,18.8l-9.4,9.4c-1.7,1.7-1.7,4.5,0,6.3c1.7,1.7,4.5,1.7,6.3,0l9.4-9.4l18.8,18.8l-9.4,9.4
		c-1.7,1.7-1.7,4.5,0,6.3s4.5,1.7,6.3,0l9.4-9.4l18.8,18.8l-9.4,9.4c-1.7,1.7-1.7,4.5,0,6.3s4.5,1.7,6.3,0l9.4-9.4l18.8,18.8
		l-9.4,9.4c-1.7,1.7-1.7,4.5,0,6.3c1.7,1.7,4.5,1.7,6.3,0l9.4-9.4l18.8,18.8L222,247c-1.7,1.7-1.7,4.5,0,6.3c1.7,1.7,4.5,1.7,6.3,0
		l9.4-9.4l35.6,35.6H70.5V76.7z"/>
	<path class="st0" d="M107.3,153.7c-1.3-1.3-3.2-1.6-4.8-1c-1.7,0.7-2.7,2.3-2.7,4.1v89c0,2.4,2,4.4,4.4,4.4h89
		c1.8,0,3.4-1.1,4.1-2.7c0.7-1.7,0.3-3.6-1-4.8L107.3,153.7z M108.6,241.4v-73.9l73.9,73.9H108.6z"/>
	<path class="st0" d="M200.3,152.9c1.7,1.7,4.5,1.7,6.3,0c1.7-1.7,1.7-4.5,0-6.3l-18.8-18.8c-1.7-1.7-4.5-1.7-6.3,0
		c-1.7,1.7-1.7,4.5,0,6.3L200.3,152.9z"/>
	<path class="st0" d="M128.8,106.8l124.3,124.3c5.2,5.2,13.6,5.2,18.8,0l12.5-12.5c5.2-5.2,5.2-13.6,0-18.8L160.2,75.4
		c-0.5-0.5-1.1-0.9-1.7-1.1l-37.6-12.5c-1.6-0.5-3.3-0.1-4.5,1.1c-1.2,1.2-1.6,2.9-1.1,4.5l12.5,37.6
		C128,105.7,128.4,106.3,128.8,106.8z M278.2,206c1.7,1.7,1.7,4.5,0,6.3l-12.5,12.5c-1.7,1.7-4.5,1.7-6.3,0l-9.6-9.6l18.8-18.8
		L278.2,206z M262.4,190.2L243.6,209l-6.3-6.3l18.8-18.8L262.4,190.2z M160,87.8l89.9,89.9L231,196.4l-89.9-89.9L160,87.8z
		 M153.2,82l-17.9,17.8L126.5,73L153.2,82z"/>
</g>
</svg>
