<?xml version="1.0" encoding="utf-8"?>
<!-- Generator: Adobe Illustrator 23.0.4, SVG Export Plug-In . SVG Version: 6.00 Build 0)  -->
<!DOCTYPE svg PUBLIC "-//W3C//DTD SVG 1.1//EN" "http://www.w3.org/Graphics/SVG/1.1/DTD/svg11.dtd" [
	<!ENTITY ns_extend "http://ns.adobe.com/Extensibility/1.0/">
	<!ENTITY ns_ai "http://ns.adobe.com/AdobeIllustrator/10.0/">
	<!ENTITY ns_graphs "http://ns.adobe.com/Graphs/1.0/">
	<!ENTITY ns_vars "http://ns.adobe.com/Variables/1.0/">
	<!ENTITY ns_imrep "http://ns.adobe.com/ImageReplacement/1.0/">
	<!ENTITY ns_sfw "http://ns.adobe.com/SaveForWeb/1.0/">
	<!ENTITY ns_custom "http://ns.adobe.com/GenericCustomNamespace/1.0/">
	<!ENTITY ns_adobe_xpath "http://ns.adobe.com/XPath/1.0/">
]>
<svg version="1.1" id="Layer_1" xmlns:x="&ns_extend;" xmlns:i="&ns_ai;" xmlns:graph="&ns_graphs;"
	 xmlns="http://www.w3.org/2000/svg" xmlns:xlink="http://www.w3.org/1999/xlink" x="0px" y="0px" viewBox="0 0 350 350"
	 style="enable-background:new 0 0 350 350;" xml:space="preserve">
<style type="text/css">
	.st0{fill:#131720;}
	.st1{fill:#BC1010;}
	.st2{fill:none;stroke:#BC1010;stroke-width:7;stroke-linecap:round;stroke-linejoin:round;stroke-miterlimit:10;}
</style>
<metadata>
	<sfw  xmlns="&ns_sfw;">
		<slices></slices>
		<sliceSourceBounds  bottomLeftOrigin="true" height="2525.5" width="2316.8" x="-983" y="-1252.1"></sliceSourceBounds>
	</sfw>
</metadata>
<g>
	<g>
		<path class="st0" d="M321.5,7c11.9,0,21.5,9.7,21.5,21.5v292.9c0,11.9-9.7,21.5-21.5,21.5h-293C16.7,343,7,333.3,7,321.5v-293
			C7,16.7,16.7,7,28.5,7H321.5 M321.5,0h-293C12.8,0,0,12.8,0,28.5v292.9C0,337.2,12.8,350,28.5,350h292.9
			c15.8,0,28.5-12.8,28.5-28.5v-293C350,12.8,337.2,0,321.5,0L321.5,0z"/>
	</g>
</g>
<g>
	<path class="st0" d="M289.9,150.7L289.9,150.7c-2.8-7.1-10.8-10.5-17.9-7.7c-0.4,0.1-0.7,0.3-1.1,0.5l-11,5.5L238,119.8
		c-0.2-0.3-0.5-0.6-0.8-0.8l-23.6-15.7c-0.4-0.3-0.9-0.5-1.4-0.5l-51-7.9c-1.1-0.2-2.2,0.2-2.9,1L129,125c-4.7,4.7-4.7,12.4,0,17.1
		c4.5,4.5,11.8,4.7,16.5,0.6l24-21l21.9,6.3l-17.9,39.3l-27.2,38.8L114.1,235c-5.6,4.8-6.3,13.4-1.5,19c2.3,2.7,5.6,4.4,9.2,4.7
		c3.6,0.3,7.1-0.9,9.8-3.2l35.4-29l21.4-21.4l27.4,20.6l-6,42c-0.5,3.8,0.6,7.6,3.1,10.4c2.5,2.9,6.1,4.5,10,4.5c0.1,0,0.1,0,0.2,0
		c6.4,0,12-4.6,13.2-10.9l10.3-54.8c0.2-1.2-0.2-2.4-1.1-3.2l-29.7-26l12.9-35.6l23.7,27.1c1,1.1,2.6,1.5,4,0.9l26.5-11.7
		C289.7,165.3,292.8,157.4,289.9,150.7z M280.2,162L280.2,162L256,172.7l-25.9-29.5c-0.6-0.7-1.4-1.1-2.4-1.2
		c-0.9-0.1-1.8,0.2-2.5,0.8c-0.4,0.4-0.8,0.9-1,1.4l-15.7,43.2c-0.5,1.3-0.1,2.8,1,3.8l30,26.2l-9.9,52.9c-0.6,3.1-3.3,5.3-6.5,5.3
		c-0.1,0-0.1,0-0.2,0c-1.6,0-3.2-0.6-4.4-1.8c-1.2-1.2-1.8-2.7-1.8-4.4c0-0.3,0-0.6,0.1-0.9l6.3-44c0.2-1.2-0.3-2.5-1.3-3.2
		l-31.4-23.6c-1.4-1-3.3-0.9-4.5,0.3l-23.3,23.3l-35.2,28.8c-2.8,2.3-7,1.9-9.3-0.9c-2.3-2.8-2-6.8,0.7-9.2l32.5-29.2
		c0.2-0.2,0.4-0.4,0.5-0.6l27.5-39.3c0.1-0.2,0.2-0.4,0.3-0.5l19.7-43.2c0.4-0.8,0.4-1.8,0.1-2.6c-0.3-0.9-1-1.5-1.8-1.9
		c-0.2-0.1-0.3-0.1-0.5-0.2l-27.5-7.9c-1.1-0.3-2.3-0.1-3.2,0.7L141,137.6c-2.1,2-5.4,1.8-7.4-0.3s-1.9-5.4,0.2-7.4l28.1-28
		l48.7,7.5l22.4,15l23.2,30.9c1,1.3,2.8,1.8,4.3,1l13.5-6.8c1.7-0.9,3.7-1,5.5-0.3c1.9,0.8,3.4,2.3,4.1,4.2
		C285,156.8,283.5,160.5,280.2,162z"/>
	<rect x="82.6" y="90.9" class="st0" width="50.1" height="6.9"/>
	<rect x="66.9" y="90.9" class="st0" width="6.9" height="6.9"/>
	<rect x="98.3" y="122.3" class="st0" width="6.9" height="6.9"/>
	<rect x="59" y="122.3" class="st0" width="30.4" height="6.9"/>
	<rect x="78.7" y="153.8" class="st0" width="38.3" height="6.9"/>
	<rect x="66.9" y="185.2" class="st0" width="65.8" height="6.9"/>
	<rect x="74.7" y="216.7" class="st0" width="30.4" height="6.9"/>
	<rect x="59" y="216.7" class="st0" width="6.9" height="6.9"/>
	<rect x="66.9" y="248.1" class="st0" width="26.5" height="6.9"/>
	<path class="st0" d="M255,67.3h-17.7c-11.6,0-21.1,9.5-21.1,21.1c0,11.6,9.5,21.1,21.1,21.1s21.1-9.5,21.1-21.1V70.7
		C258.5,68.8,256.9,67.3,255,67.3z M251.6,88.4c0,3.8-1.4,7.4-4.1,10.1c-2.7,2.7-6.2,4.2-10,4.2c0,0,0,0-0.1,0
		c-4.3,0-8.5-2-11.2-5.5l-0.3-0.4l0.3-0.3c6.7-6.6,15.5-10.3,24.9-10.5h0.5L251.6,88.4L251.6,88.4z M251.6,79.1h-0.5
		c-9.9,0.2-19.6,3.8-27.1,10.2l-0.8,0.7v-1.1c0-0.1,0-0.1,0-0.2c0-0.1,0-0.2,0-0.4c0-7.9,6.4-14.3,14.3-14.3h14.3v5.1H251.6z"/>
</g>
</svg>
