<?xml version="1.0" encoding="utf-8"?>
<!-- Generator: Adobe Illustrator 23.0.4, SVG Export Plug-In . SVG Version: 6.00 Build 0)  -->
<!DOCTYPE svg PUBLIC "-//W3C//DTD SVG 1.1//EN" "http://www.w3.org/Graphics/SVG/1.1/DTD/svg11.dtd" [
	<!ENTITY ns_extend "http://ns.adobe.com/Extensibility/1.0/">
	<!ENTITY ns_ai "http://ns.adobe.com/AdobeIllustrator/10.0/">
	<!ENTITY ns_graphs "http://ns.adobe.com/Graphs/1.0/">
	<!ENTITY ns_vars "http://ns.adobe.com/Variables/1.0/">
	<!ENTITY ns_imrep "http://ns.adobe.com/ImageReplacement/1.0/">
	<!ENTITY ns_sfw "http://ns.adobe.com/SaveForWeb/1.0/">
	<!ENTITY ns_custom "http://ns.adobe.com/GenericCustomNamespace/1.0/">
	<!ENTITY ns_adobe_xpath "http://ns.adobe.com/XPath/1.0/">
]>
<svg version="1.1" id="Layer_1" xmlns:x="&ns_extend;" xmlns:i="&ns_ai;" xmlns:graph="&ns_graphs;"
	 xmlns="http://www.w3.org/2000/svg" xmlns:xlink="http://www.w3.org/1999/xlink" x="0px" y="0px" viewBox="0 0 350 350"
	 style="enable-background:new 0 0 350 350;" xml:space="preserve">
<style type="text/css">
	.st0{fill:#131720;}
	.st1{fill:#BC1010;}
</style>
<metadata>
	<sfw  xmlns="&ns_sfw;">
		<slices></slices>
		<sliceSourceBounds  bottomLeftOrigin="true" height="2525.5" width="2316.8" x="-983" y="-1252.1"></sliceSourceBounds>
	</sfw>
</metadata>
<g>
	<g>
		<path class="st0" d="M321.5,7c11.9,0,21.5,9.7,21.5,21.5v292.9c0,11.9-9.7,21.5-21.5,21.5h-293C16.7,343,7,333.3,7,321.5v-293
			C7,16.7,16.7,7,28.5,7H321.5 M321.5,0h-293C12.8,0,0,12.8,0,28.5v292.9C0,337.2,12.8,350,28.5,350h292.9
			c15.8,0,28.5-12.8,28.5-28.5v-293C350,12.8,337.2,0,321.5,0L321.5,0z"/>
	</g>
</g>
<g>
	<g>
		<g>
			<path class="st0" d="M210.4,99.7c-2.4,0-4.4,2-4.4,4.4s2,4.4,4.4,4.4c2.4,0,4.4-2,4.4-4.4S212.9,99.7,210.4,99.7z"/>
		</g>
	</g>
	<g>
		<g>
			<path class="st0" d="M254.8,173.8c-5-18-26.9-46.3-24.2-96c0.1-1.2-0.4-2.4-1.2-3.3c-0.8-0.9-2-1.4-3.2-1.4H123.8
				c-1.2,0-2.4,0.5-3.2,1.4s-1.3,2.1-1.2,3.3c2.7,49.4-19.1,78-24.3,95.9c-9.2,32.3,5.8,74.1,27,101.4c0.8,1.1,2.1,1.7,3.5,1.7h98.7
				c1.4,0,2.7-0.6,3.5-1.7C248,249.1,263.7,205.7,254.8,173.8z M116.7,145.8c8.3-21,12.2-42.5,11.7-63.9h93.1
				c-0.5,21.4,3.4,42.8,11.7,63.8c0.4,0.9,0.7,1.8,1.1,2.7c-18.2,8.6-38.7,13.2-59.4,13.2s-41.1-4.5-59.4-13.2
				C116,147.6,116.4,146.7,116.7,145.8z M170.6,268h-42.7c-22.8-30.5-29.6-65.1-25.3-87.3c24,9.2,46.7,29,68,45.2V268z M105,172.2
				c1.5-4.1,3.4-8,5.4-12.3c0.5-1.1,1.1-2.2,1.6-3.3c19.4,9.1,41,14,63,14c22,0,43.6-4.8,63-14c0.5,1.1,1.1,2.2,1.6,3.3
				c2.1,4.3,3.9,8.1,5.4,12.3c-25.3,9.5-49.2,30.1-70,46C154.1,202.2,130.3,181.7,105,172.2z M222.2,268h-42.7v-42.1
				c21.4-16.2,44-35.9,67.9-45.1C252.6,208.8,238.9,245.4,222.2,268z"/>
		</g>
	</g>
	<g>
		<g>
			<path class="st0" d="M221.3,138.7c-1.9-5.9-3.6-11.9-4.8-17.8c-0.5-2.4-2.9-3.9-5.3-3.4c-2.4,0.5-3.9,2.9-3.4,5.3
				c1.3,6.2,3,12.5,5.1,18.7c0.8,2.3,3.3,3.6,5.6,2.8C220.8,143.5,222,141,221.3,138.7z"/>
		</g>
	</g>
	<g>
		<g>
			<path class="st0" d="M284,108.6h-27.4l10.2-10.2c1.7-1.7,1.7-4.5,0-6.3s-4.5-1.7-6.3,0l-17.7,17.7c-1.7,1.7-1.7,4.5,0,6.3
				l17.7,17.7c1.7,1.7,4.5,1.7,6.3,0c1.7-1.7,1.7-4.5,0-6.3l-10.2-10.2H284c2.4,0,4.4-2,4.4-4.4S286.4,108.6,284,108.6z"/>
		</g>
	</g>
	<g>
		<g>
			<path class="st0" d="M107.3,109.9L89.5,92.1c-1.7-1.7-4.5-1.7-6.3,0s-1.7,4.5,0,6.3l10.2,10.2H66c-2.4,0-4.4,2-4.4,4.4
				s2,4.4,4.4,4.4h27.4l-10.2,10.2c-1.7,1.7-1.7,4.5,0,6.3c1.7,1.7,4.5,1.7,6.3,0l17.7-17.7C109,114.4,109,111.6,107.3,109.9z"/>
		</g>
	</g>
</g>
</svg>
