<?xml version="1.0" encoding="utf-8"?>
<!-- Generator: Adobe Illustrator 23.0.4, SVG Export Plug-In . SVG Version: 6.00 Build 0)  -->
<!DOCTYPE svg PUBLIC "-//W3C//DTD SVG 1.1//EN" "http://www.w3.org/Graphics/SVG/1.1/DTD/svg11.dtd" [
	<!ENTITY ns_extend "http://ns.adobe.com/Extensibility/1.0/">
	<!ENTITY ns_ai "http://ns.adobe.com/AdobeIllustrator/10.0/">
	<!ENTITY ns_graphs "http://ns.adobe.com/Graphs/1.0/">
	<!ENTITY ns_vars "http://ns.adobe.com/Variables/1.0/">
	<!ENTITY ns_imrep "http://ns.adobe.com/ImageReplacement/1.0/">
	<!ENTITY ns_sfw "http://ns.adobe.com/SaveForWeb/1.0/">
	<!ENTITY ns_custom "http://ns.adobe.com/GenericCustomNamespace/1.0/">
	<!ENTITY ns_adobe_xpath "http://ns.adobe.com/XPath/1.0/">
]>
<svg version="1.1" id="Layer_1" xmlns:x="&ns_extend;" xmlns:i="&ns_ai;" xmlns:graph="&ns_graphs;"
	 xmlns="http://www.w3.org/2000/svg" xmlns:xlink="http://www.w3.org/1999/xlink" x="0px" y="0px" viewBox="0 0 350 350"
	 style="enable-background:new 0 0 350 350;" xml:space="preserve">
<style type="text/css">
	.st0{fill:#131720;}
	.st1{fill:#BC1010;}
</style>
<metadata>
	<sfw  xmlns="&ns_sfw;">
		<slices></slices>
		<sliceSourceBounds  bottomLeftOrigin="true" height="2525.5" width="2316.8" x="-983" y="-1252.1"></sliceSourceBounds>
	</sfw>
</metadata>
<g>
	<g>
		<path class="st0" d="M321.5,7c11.9,0,21.5,9.7,21.5,21.5v292.9c0,11.9-9.7,21.5-21.5,21.5h-293C16.7,343,7,333.3,7,321.5v-293
			C7,16.7,16.7,7,28.5,7H321.5 M321.5,0h-293C12.8,0,0,12.8,0,28.5v292.9C0,337.2,12.8,350,28.5,350h292.9
			c15.8,0,28.5-12.8,28.5-28.5v-293C350,12.8,337.2,0,321.5,0L321.5,0z"/>
	</g>
</g>
<g>
	<g>
		<g>
			<path class="st0" d="M196.9,243.5h-17.2c-2.4,0-4.4,2-4.4,4.4s2,4.4,4.4,4.4h17.2c2.7,0,4.8,2.2,4.8,4.8c0,2.7-2.2,4.8-4.8,4.8
				h-46.3c-7,0-13.5-3.1-17.9-8.4l-11.1-13.3c-5.9-7.1-14.6-11.3-23.8-11.6v-26.2h16.3c8,0,15.7,3.1,21.4,8.7l23.9,23
				c1.7,1.6,1.8,4.4,0.2,6.1c-1.6,1.8-4.4,1.9-6.1,0.3l-18.7-17.2c-1.8-1.7-4.6-1.5-6.3,0.3c-1.7,1.8-1.5,4.6,0.3,6.3l18.7,17.2
				c2.5,2.3,5.7,3.5,8.9,3.5c3.6,0,7.1-1.4,9.7-4.2c4.8-5.2,4.6-13.5-0.5-18.5l-23.9-23c-7.4-7.2-17.2-11.1-27.6-11.1H97
				c-1.7-3.9-5.6-6.7-10.1-6.7H66c-2.4,0-4.4,2-4.4,4.4v32.4c0,2.4,2,4.4,4.4,4.4s4.4-2,4.4-4.4v-28h16.4c1.2,0,2.1,1,2.1,2.1v35.5
				c0,1.2-1,2.1-2.1,2.1h-4.6c-2.4,0-4.4,2-4.4,4.4c0,2.4,2,4.4,4.4,4.4h4.6c4.6,0,8.6-2.9,10.2-6.9c6.9,0,13.4,3.1,17.8,8.4
				l11.1,13.3c6.1,7.4,15.2,11.6,24.7,11.6h46.3c7.5,0,13.7-6.1,13.7-13.7C210.6,249.7,204.5,243.5,196.9,243.5z"/>
		</g>
	</g>
	<g>
		<g>
			<path class="st0" d="M284,120c-2.4,0-4.4,2-4.4,4.4v29.7h-16.4c-1.2,0-2.1-1-2.1-2.1v-35.5c0-1.2,1-2.1,2.1-2.1h4.3
				c2.4,0,4.4-2,4.4-4.4c0-2.4-2-4.4-4.4-4.4h-4.3c-4.6,0-8.6,2.9-10.2,6.9c-6.9,0-13.4-3.1-17.8-8.4l-11.1-13.3
				c-6.1-7.4-15.2-11.6-24.7-11.6h-46.3c-7.5,0-13.7,6.1-13.7,13.7s6.1,13.7,13.7,13.7H172c2.4,0,4.4-2,4.4-4.4s-2-4.4-4.4-4.4
				h-18.9c-2.7,0-4.8-2.2-4.8-4.8c0-2.7,2.2-4.8,4.8-4.8h46.3c7,0,13.5,3.1,17.9,8.4l11.1,13.3c5.9,7.1,14.6,11.3,23.8,11.6v26.2
				h-16.3c-8,0-15.7-3.1-21.4-8.7l-23.9-23c-1.7-1.6-1.8-4.4-0.2-6.1c1.6-1.8,4.4-1.9,6.1-0.3l18.7,17.2c1.8,1.7,4.6,1.5,6.3-0.3
				c1.7-1.8,1.5-4.6-0.3-6.3l-18.7-17.2c-5.4-4.9-13.7-4.6-18.6,0.8c-4.8,5.2-4.6,13.5,0.5,18.5l23.9,23
				c7.4,7.2,17.2,11.1,27.6,11.1H253c1.7,3.9,5.6,6.7,10.1,6.7H284c2.4,0,4.4-2,4.4-4.4v-34.1C288.4,122,286.4,120,284,120z"/>
		</g>
	</g>
	<g>
		<g>
			<path class="st0" d="M204.6,229.8c-1-2.2-3.6-3.2-5.9-2.2c-2.2,1-3.3,3.6-2.3,5.8c0.7,1.7,2.4,2.7,4.1,2.7c0.6,0,1.2-0.1,1.8-0.4
				c0,0,0.1,0,0.1,0C204.6,234.6,205.6,232,204.6,229.8z"/>
		</g>
	</g>
	<g>
		<g>
			<path class="st0" d="M215.6,222.3c-1.4-2-4.2-2.4-6.2-0.9c-2,1.4-2.4,4.2-1,6.2c0.9,1.2,2.2,1.8,3.6,1.8c0.9,0,1.8-0.3,2.6-0.9
				c0,0,0,0,0.1,0C216.7,227,217.1,224.3,215.6,222.3z"/>
		</g>
	</g>
	<g>
		<g>
			<path class="st0" d="M192.2,234.7c-0.5-2.4-2.8-3.9-5.2-3.4c-2.4,0.5-3.9,2.8-3.5,5.2c0.4,2.1,2.3,3.6,4.3,3.6
				c0.3,0,0.6,0,0.8-0.1c0,0,0.1,0,0.1,0C191.2,239.5,192.7,237.1,192.2,234.7z"/>
		</g>
	</g>
	<g>
		<g>
			<path class="st0" d="M224.9,212.7c-1.8-1.6-4.6-1.5-6.3,0.3c0,0-0.1,0.1-0.1,0.1c-1.6,1.9-1.4,4.6,0.5,6.2
				c0.8,0.7,1.9,1.1,2.9,1.1c1.2,0,2.5-0.5,3.3-1.5C226.8,217.1,226.7,214.3,224.9,212.7z M222.4,216.4l-0.5-0.4L222.4,216.4
				L222.4,216.4z"/>
		</g>
	</g>
	<g>
		<g>
			<path class="st0" d="M236.1,188.7c-2.3-0.7-4.8,0.6-5.5,3c-0.7,2.3,0.6,4.8,2.9,5.5c0.4,0.1,0.9,0.2,1.3,0.2
				c1.9,0,3.6-1.2,4.2-3.1l0-0.1C239.8,191.8,238.5,189.4,236.1,188.7z"/>
		</g>
	</g>
	<g>
		<g>
			<path class="st0" d="M241.8,165.8c0-0.1,0-0.1,0-0.2c-0.5-2.4-2.8-3.9-5.2-3.4c-2.4,0.5-3.9,2.8-3.4,5.2c0.4,2.1,2.3,3.6,4.3,3.6
				c0.3,0,0.5,0,0.8-0.1C240.6,170.5,242.2,168.2,241.8,165.8z"/>
		</g>
	</g>
	<g>
		<g>
			<path class="st0" d="M237.7,175.4c-2.4-0.2-4.6,1.6-4.8,4c0,0,0,0.1,0,0.2c-0.1,2.4,1.7,4.5,4.2,4.7c0.1,0,0.2,0,0.3,0
				c2.3,0,4.2-1.8,4.4-4.1C242,177.8,240.2,175.6,237.7,175.4z"/>
		</g>
	</g>
	<g>
		<g>
			<path class="st0" d="M231.8,201.3c-2.1-1.2-4.8-0.5-6,1.7l-0.1,0.1c-1.2,2.1-0.4,4.9,1.8,6c0.7,0.4,1.4,0.5,2.1,0.5
				c1.6,0,3.1-0.8,3.9-2.3l-3.8-2.2l3.9,2.2C234.7,205.2,233.9,202.5,231.8,201.3z"/>
		</g>
	</g>
	<g>
		<g>
			<path class="st0" d="M151.5,116.9c-1.1-2.2-3.8-3.1-5.9-2l0,0c-2.2,1.1-3.1,3.7-2,5.9c0.8,1.5,2.3,2.4,4,2.4c0.7,0,1.4-0.2,2-0.5
				C151.7,121.8,152.6,119.1,151.5,116.9z"/>
		</g>
	</g>
	<g>
		<g>
			<path class="st0" d="M164.3,113.2c-0.6-2.4-3-3.8-5.3-3.3c0,0-0.1,0-0.1,0c-2.4,0.6-3.8,3-3.2,5.4c0.5,2,2.3,3.3,4.3,3.3
				c0.4,0,0.7,0,1.1-0.1C163.4,118,164.9,115.6,164.3,113.2z"/>
		</g>
	</g>
	<g>
		<g>
			<path class="st0" d="M139.8,123.3c-1.5-1.9-4.3-2.2-6.2-0.7l2.7,3.5l-2.8-3.5c-1.9,1.5-2.2,4.3-0.7,6.2c0.9,1.1,2.2,1.7,3.5,1.7
				c1,0,1.9-0.3,2.8-1l0.1,0C141,128,141.3,125.2,139.8,123.3z"/>
		</g>
	</g>
	<g>
		<g>
			<path class="st0" d="M116.2,154.8c-2.4-0.6-4.8,0.7-5.4,3.1c0,0,0,0.1,0,0.2c-0.6,2.4,0.9,4.8,3.3,5.3c0.4,0.1,0.7,0.1,1,0.1
				c2,0,3.8-1.3,4.3-3.4C119.9,157.9,118.5,155.5,116.2,154.8z"/>
		</g>
	</g>
	<g>
		<g>
			<path class="st0" d="M113.3,167.8c-2.4-0.1-4.5,1.7-4.7,4.2c0,0.1,0,0.1,0,0.2c-0.1,2.4,1.9,4.5,4.3,4.6c0,0,0.1,0,0.1,0
				c2.4,0,4.3-1.9,4.4-4.3C117.6,170,115.8,168,113.3,167.8z"/>
		</g>
	</g>
	<g>
		<g>
			<path class="st0" d="M121.7,142.7c-2.2-1.1-4.8-0.3-6,1.9l-0.1,0.1c-1.1,2.2-0.2,4.8,2,5.9c0.6,0.3,1.3,0.5,2,0.5
				c1.6,0,3.2-0.9,4-2.5C124.7,146.5,123.9,143.9,121.7,142.7z"/>
		</g>
	</g>
	<g>
		<g>
			<path class="st0" d="M129.7,132.1c-1.9-1.6-4.7-1.3-6.2,0.6c0,0-0.1,0.1-0.1,0.1c-1.5,1.9-1.2,4.7,0.7,6.2c0.8,0.6,1.8,1,2.7,1
				c1.3,0,2.6-0.6,3.5-1.7C131.9,136.4,131.6,133.6,129.7,132.1z"/>
		</g>
	</g>
	<g>
		<g>
			<path class="st0" d="M118.3,184.8c-0.4-2.4-2.7-4-5.1-3.6c-2.4,0.4-4,2.7-3.6,5.1l0,0c0.4,2.1,2.2,3.6,4.3,3.6
				c0.3,0,0.5,0,0.8-0.1C117.2,189.5,118.8,187.2,118.3,184.8z"/>
		</g>
	</g>
	<g>
		<g>
			<path class="st0" d="M190.2,151.1c-5.8,0-11.1,2.4-14.9,6.4c-3.8-4-9.1-6.4-14.9-6.4c-11.3,0-20.6,9.2-20.6,20.6
				c0,6.1,2.7,11.9,7.4,15.8c0,0,0.1,0,0.1,0.1l25.2,20c0.8,0.6,1.8,1,2.7,1c1,0,2-0.3,2.8-1l26.3-21c0.1-0.1,0.3-0.2,0.4-0.3
				c3.9-3.9,6-9.1,6-14.6C210.8,160.4,201.5,151.1,190.2,151.1z M198.6,179.8l-23.3,18.6l-22.4-17.8c-2.7-2.2-4.2-5.5-4.2-9
				c0-6.5,5.3-11.7,11.7-11.7c4.8,0,9,2.8,10.8,7.2c0.7,1.7,2.3,2.7,4.1,2.7s3.4-1.1,4.1-2.7c1.8-4.4,6.1-7.2,10.8-7.2
				c6.5,0,11.7,5.3,11.7,11.7C201.9,174.8,200.8,177.6,198.6,179.8z"/>
		</g>
	</g>
	<g>
		<g>
			<circle class="st0" cx="66" cy="240" r="4.4"/>
		</g>
	</g>
	<g>
		<g>
			<circle class="st0" cx="284" cy="110" r="4.4"/>
		</g>
	</g>
</g>
</svg>
