<?xml version="1.0" encoding="utf-8"?>
<!-- Generator: Adobe Illustrator 23.0.4, SVG Export Plug-In . SVG Version: 6.00 Build 0)  -->
<!DOCTYPE svg PUBLIC "-//W3C//DTD SVG 1.1//EN" "http://www.w3.org/Graphics/SVG/1.1/DTD/svg11.dtd" [
	<!ENTITY ns_extend "http://ns.adobe.com/Extensibility/1.0/">
	<!ENTITY ns_ai "http://ns.adobe.com/AdobeIllustrator/10.0/">
	<!ENTITY ns_graphs "http://ns.adobe.com/Graphs/1.0/">
	<!ENTITY ns_vars "http://ns.adobe.com/Variables/1.0/">
	<!ENTITY ns_imrep "http://ns.adobe.com/ImageReplacement/1.0/">
	<!ENTITY ns_sfw "http://ns.adobe.com/SaveForWeb/1.0/">
	<!ENTITY ns_custom "http://ns.adobe.com/GenericCustomNamespace/1.0/">
	<!ENTITY ns_adobe_xpath "http://ns.adobe.com/XPath/1.0/">
]>
<svg version="1.1" id="Layer_1" xmlns:x="&ns_extend;" xmlns:i="&ns_ai;" xmlns:graph="&ns_graphs;"
	 xmlns="http://www.w3.org/2000/svg" xmlns:xlink="http://www.w3.org/1999/xlink" x="0px" y="0px" viewBox="0 0 350 350"
	 style="enable-background:new 0 0 350 350;" xml:space="preserve">
<style type="text/css">
	.st0{fill:#131720;}
	.st1{fill:#BC1010;}
</style>
<metadata>
	<sfw  xmlns="&ns_sfw;">
		<slices></slices>
		<sliceSourceBounds  bottomLeftOrigin="true" height="2525.5" width="2316.8" x="-983" y="-1252.1"></sliceSourceBounds>
	</sfw>
</metadata>
<g>
	<g>
		<path class="st0" d="M321.5,7c11.9,0,21.5,9.7,21.5,21.5v292.9c0,11.9-9.7,21.5-21.5,21.5h-293C16.7,343,7,333.3,7,321.5v-293
			C7,16.7,16.7,7,28.5,7H321.5 M321.5,0h-293C12.8,0,0,12.8,0,28.5v292.9C0,337.2,12.8,350,28.5,350h292.9
			c15.8,0,28.5-12.8,28.5-28.5v-293C350,12.8,337.2,0,321.5,0L321.5,0z"/>
	</g>
</g>
<g>
	<path class="st0" d="M74.5,275.3c0.4,2.2,2.5,3.7,4.7,3.3l33.3-5.8c2.2-0.4,3.7-2.5,3.3-4.7l-0.6-3.7l7.8-6.3c3-2.5,7-3.8,10.9-3.5
		l54.3,4c0.1,0,0.2,0,0.3,0h0.3c12,0,23.6-3.8,33.3-10.9c0.2-0.1,0.3-0.2,0.4-0.4l64.7-63.3c1.5-1.5,1.6-4,0.2-5.6
		c-7.5-8.6-20.4-9.8-29.3-2.8l-29.7,22.2c-6.2-7.5-15.9-11.1-25.5-9.5l-30.4,5.3c-4.8,0.8-9.8,0.6-14.5-0.8l-3.4-1
		c-17.5-5-36.3-1.1-50.3,10.4L103,195c-0.4-2.2-2.5-3.7-4.7-3.3L65,197.5c-2.2,0.4-3.7,2.5-3.3,4.7L74.5,275.3z M152.3,199.8l3.4,1
		c5.9,1.7,12.1,2,18.2,0.9l30.4-5.3c8.7-1.5,17.3,3.2,20.7,11.4l-45.5,8c-2.1,0.4-3.5,2.3-3.4,4.4c0.2,2.1,1.9,3.7,4.1,3.7
		c0.2,0,0.5,0,0.7-0.1l49.9-8.7c2.2-0.4,3.7-2.5,3.3-4.7c-0.3-1.9-0.8-3.7-1.5-5.4l30.4-22.8c0,0,0.1,0,0.1-0.1
		c4.4-3.5,10.5-3.8,15.2-0.8L217,241.3c-8.2,5.9-18.1,9.2-28.3,9.2h-0.2l-54.2-4c-6-0.5-12,1.4-16.7,5.3l-4.2,3.4l-7.6-43.3
		C118,199.6,135.8,195,152.3,199.8z M95.7,200.5l11.4,65l-25.3,4.4l-11.4-65L95.7,200.5z"/>
	<path class="st0" d="M185.2,182.1c30.6,0,55.4-24.8,55.4-55.4s-24.8-55.4-55.4-55.4c-30.6,0-55.4,24.8-55.4,55.4
		C129.8,157.2,154.6,182,185.2,182.1z M185.2,79.4c26.1,0,47.2,21.1,47.2,47.2s-21.1,47.2-47.2,47.2c-26.1,0-47.2-21.1-47.2-47.2
		C138,100.6,159.1,79.5,185.2,79.4z"/>
	<path class="st0" d="M182.3,135.2h22.8c2.3,0,4.1-1.8,4.1-4.1s-1.8-4.1-4.1-4.1h-18.9V101c0-2.3-1.8-4.1-4.1-4.1
		c-2.3,0-4.1,1.8-4.1,4.1V131C178.1,133.3,180,135.2,182.3,135.2z"/>
</g>
</svg>
