<?xml version="1.0" encoding="utf-8"?>
<!-- Generator: Adobe Illustrator 23.0.4, SVG Export Plug-In . SVG Version: 6.00 Build 0)  -->
<!DOCTYPE svg PUBLIC "-//W3C//DTD SVG 1.1//EN" "http://www.w3.org/Graphics/SVG/1.1/DTD/svg11.dtd" [
	<!ENTITY ns_extend "http://ns.adobe.com/Extensibility/1.0/">
	<!ENTITY ns_ai "http://ns.adobe.com/AdobeIllustrator/10.0/">
	<!ENTITY ns_graphs "http://ns.adobe.com/Graphs/1.0/">
	<!ENTITY ns_vars "http://ns.adobe.com/Variables/1.0/">
	<!ENTITY ns_imrep "http://ns.adobe.com/ImageReplacement/1.0/">
	<!ENTITY ns_sfw "http://ns.adobe.com/SaveForWeb/1.0/">
	<!ENTITY ns_custom "http://ns.adobe.com/GenericCustomNamespace/1.0/">
	<!ENTITY ns_adobe_xpath "http://ns.adobe.com/XPath/1.0/">
]>
<svg version="1.1" id="Layer_1" xmlns:x="&ns_extend;" xmlns:i="&ns_ai;" xmlns:graph="&ns_graphs;"
	 xmlns="http://www.w3.org/2000/svg" xmlns:xlink="http://www.w3.org/1999/xlink" x="0px" y="0px" viewBox="0 0 350 350"
	 style="enable-background:new 0 0 350 350;" xml:space="preserve">
<style type="text/css">
	.st0{fill:#131720;}
	.st1{fill:#BC1010;}
</style>
<metadata>
	<sfw  xmlns="&ns_sfw;">
		<slices></slices>
		<sliceSourceBounds  bottomLeftOrigin="true" height="2525.5" width="2316.8" x="-983" y="-1252.1"></sliceSourceBounds>
	</sfw>
</metadata>
<g>
	<g>
		<path class="st0" d="M321.5,7c11.9,0,21.5,9.7,21.5,21.5v292.9c0,11.9-9.7,21.5-21.5,21.5h-293C16.7,343,7,333.3,7,321.5v-293
			C7,16.7,16.7,7,28.5,7H321.5 M321.5,0h-293C12.8,0,0,12.8,0,28.5v292.9C0,337.2,12.8,350,28.5,350h292.9
			c15.8,0,28.5-12.8,28.5-28.5v-293C350,12.8,337.2,0,321.5,0L321.5,0z"/>
	</g>
</g>
<g>
	<path class="st0" d="M169.9,281.7c0,2.8,2.3,5.1,5.1,5.1c61.7,0,111.9-50.2,111.9-111.9c0-21.1-6.3-42-18.1-60.2l-0.7-1l10.4-10.4
		c1.3-1.3,1.8-3.1,1.4-4.8s-1.7-3.1-3.4-3.7l-42.3-14.1c-1.9-0.6-3.9-0.1-5.3,1.2c-1.4,1.4-1.9,3.4-1.2,5.3l14.1,42.3
		c0.6,1.7,2,3,3.7,3.4c1.7,0.4,3.5-0.1,4.8-1.4l10.4-10.4l1,1.6c9.8,16,14.9,34,14.9,52.2c0,56-45.6,101.6-101.6,101.6
		C172.2,276.6,169.9,278.9,169.9,281.7z M248.9,118.4l-8.2-24.6l24.6,8.2L248.9,118.4z"/>
	<path class="st0" d="M180.1,68.3c0-2.8-2.3-5.1-5.1-5.1c-61.7,0-111.9,50.2-111.9,111.9c0,20.3,5.8,40.4,16.8,58.2l0.6,1
		l-11.1,11.1h0c-1.3,1.3-1.8,3.1-1.4,4.8c0.4,1.7,1.7,3.1,3.4,3.7l42.3,14.1c1.9,0.6,3.9,0.1,5.3-1.2c1.4-1.4,1.9-3.4,1.2-5.3
		l-14.1-42.3c-0.6-1.7-2-3-3.7-3.4c-1.7-0.4-3.5,0.1-4.8,1.4l-9.6,9.6l-1-1.7c-8.9-15.5-13.7-32.8-13.7-50.1
		C73.4,119,119,73.4,175,73.4C177.8,73.4,180.1,71.1,180.1,68.3z M99.1,230.3l8.2,24.6l-24.6-8.2L99.1,230.3z"/>
	<path class="st0" d="M135.1,220c0.6,0,1.3,0,2-0.1l0.6-0.1l0.5,0.4c10.3,8.4,23.4,13.1,36.8,13.1c6.7,0,13.3-1.1,19.6-3.4l0.6-0.2
		l0.6,0.3c3.8,2.1,8,3.3,12.4,3.3c13.8,0,25.1-11.2,25.1-25.1c0-4.3-1.1-8.6-3.3-12.4l-0.3-0.6l0.2-0.6c2.2-6.3,3.4-12.9,3.4-19.6
		c0-14.6-5.5-28.6-15.4-39.4l-0.6-0.7l0.4-0.9c1.6-3.9,2.4-7.9,2.4-12.1c0-17.5-14.2-31.7-31.7-31.7c-16.4,0-30,12.3-31.6,28.6
		l-0.1,1l-0.9,0.3c-2,0.7-4,1.5-5.9,2.4l-1,0.5l-0.8-0.7c-3.5-3.5-8.1-5.4-13-5.4c-10.2,0-18.4,8.3-18.4,18.4c0,4.9,1.9,9.5,5.4,13
		l0.7,0.8l-0.5,1c-3.7,7.8-5.7,16.5-5.7,25.1c0,5.6,0.8,11.2,2.4,16.6l0.2,0.6l-0.3,0.5c-1.5,2.7-2.3,5.8-2.3,8.9
		C116.7,211.7,125,220,135.1,220z M208.2,223c-8.2,0-14.8-6.6-14.8-14.8s6.6-14.8,14.8-14.8c8.2,0,14.8,6.6,14.8,14.8
		S216.4,223,208.2,223z M168,115c3-8.7,11.1-14.6,20.3-14.6c11.8,0,21.4,9.6,21.4,21.4c0,1.1-0.1,2.3-0.3,3.5l-0.4,2.3l-1.9-1.3
		c-9.5-6.3-20.6-9.7-32.1-9.7c-1.8,0-3.6,0.1-5.5,0.3l-2.3,0.2L168,115z M135.1,127c4.5,0,8.1,3.7,8.1,8.1c0,4.5-3.7,8.1-8.1,8.1
		c-4.5,0-8.1-3.7-8.1-8.1C127,130.6,130.6,127,135.1,127z M131.7,154.3l0.5-1l1.1,0.1c0.7,0.1,1.3,0.1,2,0.1
		c10.2,0,18.4-8.3,18.4-18.4c0-0.6,0-1.3-0.1-2l-0.1-1.1l1-0.5c6.4-3.1,13.6-4.7,20.7-4.7c26.5,0,48,21.5,48,48c0,3.4-0.3,6.7-1,10
		l-0.4,1.9l-1.8-0.9c-3.6-1.9-7.5-2.8-11.6-2.8c-13.8,0-25.1,11.2-25.1,25.1c0,4.1,1,8,2.8,11.6l0.9,1.8L185,222
		c-3.3,0.7-6.6,1-10,1c-9,0-17.8-2.5-25.5-7.3l-1.5-0.9l1.1-1.3c2.8-3.3,4.4-7.5,4.4-11.9c0-10.2-8.3-18.4-18.4-18.4
		c-1.9,0-3.8,0.3-5.6,0.9l-1.7,0.5l-0.3-1.7c-0.4-2.6-0.6-5.2-0.6-7.8C127,167.9,128.6,160.7,131.7,154.3z M135.1,193.4
		c4.5,0,8.1,3.7,8.1,8.1c0,4.5-3.7,8.1-8.1,8.1c-4.5,0-8.1-3.7-8.1-8.1C127,197.1,130.6,193.4,135.1,193.4z"/>
</g>
</svg>
