<?xml version="1.0" encoding="utf-8"?>
<!-- Generator: Adobe Illustrator 23.0.4, SVG Export Plug-In . SVG Version: 6.00 Build 0)  -->
<!DOCTYPE svg PUBLIC "-//W3C//DTD SVG 1.1//EN" "http://www.w3.org/Graphics/SVG/1.1/DTD/svg11.dtd" [
	<!ENTITY ns_extend "http://ns.adobe.com/Extensibility/1.0/">
	<!ENTITY ns_ai "http://ns.adobe.com/AdobeIllustrator/10.0/">
	<!ENTITY ns_graphs "http://ns.adobe.com/Graphs/1.0/">
	<!ENTITY ns_vars "http://ns.adobe.com/Variables/1.0/">
	<!ENTITY ns_imrep "http://ns.adobe.com/ImageReplacement/1.0/">
	<!ENTITY ns_sfw "http://ns.adobe.com/SaveForWeb/1.0/">
	<!ENTITY ns_custom "http://ns.adobe.com/GenericCustomNamespace/1.0/">
	<!ENTITY ns_adobe_xpath "http://ns.adobe.com/XPath/1.0/">
]>
<svg version="1.1" id="Layer_1" xmlns:x="&ns_extend;" xmlns:i="&ns_ai;" xmlns:graph="&ns_graphs;"
	 xmlns="http://www.w3.org/2000/svg" xmlns:xlink="http://www.w3.org/1999/xlink" x="0px" y="0px" viewBox="0 0 350 350"
	 style="enable-background:new 0 0 350 350;" xml:space="preserve">
<style type="text/css">
	.st0{fill:#131720;}
	.st1{fill:#BC1010;}
</style>
<metadata>
	<sfw  xmlns="&ns_sfw;">
		<slices></slices>
		<sliceSourceBounds  bottomLeftOrigin="true" height="2525.5" width="2316.8" x="-983" y="-1252.1"></sliceSourceBounds>
	</sfw>
</metadata>
<g>
	<g>
		<path class="st0" d="M321.5,7c11.9,0,21.5,9.7,21.5,21.5v292.9c0,11.9-9.7,21.5-21.5,21.5h-293C16.7,343,7,333.3,7,321.5v-293
			C7,16.7,16.7,7,28.5,7H321.5 M321.5,0h-293C12.8,0,0,12.8,0,28.5v292.9C0,337.2,12.8,350,28.5,350h292.9
			c15.8,0,28.5-12.8,28.5-28.5v-293C350,12.8,337.2,0,321.5,0L321.5,0z"/>
	</g>
</g>
<g>
	<g>
		<path class="st0" d="M269,169.3h-76c-3.2,0-5.7,2.5-5.7,5.7s2.5,5.7,5.7,5.7h76L249.6,200c-2.2,2.2-2.2,5.8,0,8
			c1.1,1.1,2.5,1.7,4,1.7c1.5,0,2.9-0.6,4-1.7l29-29c2.2-2.2,2.2-5.8,0-8l-29-29c-2.2-2.2-5.8-2.2-8,0c-2.2,2.2-2.2,5.8,0,8
			L269,169.3z"/>
		<path class="st0" d="M92.3,208c1.1,1.1,2.5,1.7,4,1.7c1.5,0,2.9-0.6,4-1.7c2.2-2.2,2.2-5.8,0-8L81,180.6h76c3.2,0,5.7-2.5,5.7-5.7
			c0-3.1-2.5-5.7-5.7-5.7H81l19.3-19.3c2.2-2.2,2.2-5.8,0-8c-2.2-2.2-5.8-2.2-8,0l-29,29c-2.2,2.2-2.2,5.8,0,8L92.3,208z"/>
		<path class="st0" d="M149.9,100.3L169.3,81v76c0,3.2,2.5,5.7,5.7,5.7c3.2,0,5.7-2.5,5.7-5.7V81l19.3,19.3c1.1,1.1,2.5,1.7,4,1.7
			c1.5,0,2.9-0.6,4-1.7c2.2-2.2,2.2-5.8,0-8l-29-29c-2.1-2.1-5.9-2.1-8,0l-29,29c-2.2,2.2-2.2,5.8,0,8
			C144.2,102.5,147.8,102.5,149.9,100.3z"/>
		<path class="st0" d="M175,187.2c-3.2,0-5.7,2.5-5.7,5.7v76l-19.3-19.3c-2.2-2.2-5.8-2.2-8,0c-2.2,2.2-2.2,5.8,0,8l29,29
			c1.1,1.1,2.5,1.7,4,1.7c1.5,0,3-0.6,4-1.7l29-29c2.2-2.2,2.2-5.8,0-8c-2.2-2.2-5.8-2.2-8,0l-19.3,19.3v-76
			C180.6,189.8,178.1,187.2,175,187.2z"/>
	</g>
</g>
</svg>
