<?xml version="1.0" encoding="utf-8"?>
<!-- Generator: Adobe Illustrator 23.0.4, SVG Export Plug-In . SVG Version: 6.00 Build 0)  -->
<!DOCTYPE svg PUBLIC "-//W3C//DTD SVG 1.1//EN" "http://www.w3.org/Graphics/SVG/1.1/DTD/svg11.dtd" [
	<!ENTITY ns_extend "http://ns.adobe.com/Extensibility/1.0/">
	<!ENTITY ns_ai "http://ns.adobe.com/AdobeIllustrator/10.0/">
	<!ENTITY ns_graphs "http://ns.adobe.com/Graphs/1.0/">
	<!ENTITY ns_vars "http://ns.adobe.com/Variables/1.0/">
	<!ENTITY ns_imrep "http://ns.adobe.com/ImageReplacement/1.0/">
	<!ENTITY ns_sfw "http://ns.adobe.com/SaveForWeb/1.0/">
	<!ENTITY ns_custom "http://ns.adobe.com/GenericCustomNamespace/1.0/">
	<!ENTITY ns_adobe_xpath "http://ns.adobe.com/XPath/1.0/">
]>
<svg version="1.1" id="Layer_1" xmlns:x="&ns_extend;" xmlns:i="&ns_ai;" xmlns:graph="&ns_graphs;"
	 xmlns="http://www.w3.org/2000/svg" xmlns:xlink="http://www.w3.org/1999/xlink" x="0px" y="0px" viewBox="0 0 350 350"
	 style="enable-background:new 0 0 350 350;" xml:space="preserve">
<style type="text/css">
	.st0{fill:#131720;}
	.st1{fill:#BC1010;}
	.st2{fill:none;stroke:#BC1010;stroke-width:7;stroke-linecap:round;stroke-linejoin:round;stroke-miterlimit:10;}
</style>
<metadata>
	<sfw  xmlns="&ns_sfw;">
		<slices></slices>
		<sliceSourceBounds  bottomLeftOrigin="true" height="2525.5" width="2316.8" x="-983" y="-1252.1"></sliceSourceBounds>
	</sfw>
</metadata>
<g>
	<g>
		<path class="st0" d="M321.5,7c11.9,0,21.5,9.7,21.5,21.5v292.9c0,11.9-9.7,21.5-21.5,21.5h-293C16.7,343,7,333.3,7,321.5v-293
			C7,16.7,16.7,7,28.5,7H321.5 M321.5,0h-293C12.8,0,0,12.8,0,28.5v292.9C0,337.2,12.8,350,28.5,350h292.9
			c15.8,0,28.5-12.8,28.5-28.5v-293C350,12.8,337.2,0,321.5,0L321.5,0z"/>
	</g>
</g>
<g>
	<g>
		<g>
			<path d="M213.6,254.3c-1.7-1.7-4.5-1.7-6.3,0c-1.7,1.7-1.7,4.5,0,6.3c1.7,1.7,4.5,1.7,6.3,0C215.3,258.8,215.3,256,213.6,254.3z"
				/>
		</g>
	</g>
	<g>
		<g>
			<path d="M281.5,195.5c-0.1-0.1-29.3-15.9-35.1-18.9c-5.2-8.6-21.5-35.5-21.5-35.5c-2.9-4.8-8-8-13.6-8.5
				c-0.5-0.1-0.8-0.1-1.1-0.1c-14.4,0-53.6,0-70.5,0c-0.1,0-0.2,0-0.3,0c0,0-0.1,0-0.1,0c0,0-0.1,0-0.1,0
				c-5.7,0.4-10.9,3.6-13.9,8.6c0,0-16.3,26.9-21.5,35.5c-8.2,4.2-31.7,17.2-34.3,18.4c-0.3,0.1-0.5,0.3-0.8,0.5
				c-8.6,6.6-9.2,19.1-1.7,26.6c5.7,5.7,14.5,6.8,21.5,2.8c0.7-0.4,15.4-9.8,24.4-14.7c6.8-3.8,12.9-8.6,18.3-14.4
				c2.3-2.5,3-3.3,4.2-4.6v37l-38.7,19.1c-5.3,2.6-9.3,7.3-11.1,13c-1.8,5.6-1.1,11.8,1.8,17c3.9,7,11.2,11.3,19.3,11.3h137.1
				c8,0,15.1-4.1,19.1-10.9c3-5.2,3.7-11.4,2-17.1c-1.7-5.7-5.8-10.5-11.1-13.2l-38.7-19.1v-37c1.5,1.6,2.9,3.2,4.3,4.7
				c5.3,5.7,11.4,10.5,18.1,14.3c9,5,23.6,14.3,24.4,14.7c6.9,4.1,15.8,3,21.5-2.8C290.7,214.6,290,202.1,281.5,195.5z M161.7,141.3
				l26.6,0v13.3c0,7.3-6,13.3-13.3,13.3c-7.3,0-13.3-5.9-13.3-13.3V141.3z M144,141.3l8.9,0v13.3c0,12.2,9.9,22.1,22.1,22.1
				c12.2,0,22.1-9.9,22.1-22.1v-13.3l8.9,0v39.9v45.2h-62C144,224.1,144,142.1,144,141.3z M124.4,189.7
				C124.4,189.7,124.4,189.7,124.4,189.7c-4.7,5.1-10.1,9.4-16,12.7c-9.1,5-23.7,14.3-24.6,14.9c-3.5,2-7.9,1.5-10.7-1.4
				c-3.6-3.6-3.5-9.6,0.6-13.1c4.5-2.3,28.2-15.4,35.1-18.8c0.7-0.4,1.4-1,1.8-1.7c4.3-7.1,22.1-36.6,22.1-36.6
				c0.6-1,1.5-1.9,2.4-2.6v35C135.1,178.1,124.5,189.6,124.4,189.7z M161.7,279.5H144c-4.9,0-8.9-4-8.9-8.9c0-4.9,4-8.9,8.9-8.9
				h17.7V279.5z M249.6,255.1c3.2,1.6,5.5,4.4,6.6,7.8c1,3.4,0.6,7.1-1.2,10.1c-2.4,4.1-6.6,6.5-11.5,6.5h-73v-17.7h22.1
				c2.4,0,4.4-2,4.4-4.4c0-2.4-2-4.4-4.4-4.4H144c-9.8,0-17.7,7.9-17.7,17.7c0,3.2,0.9,6.3,2.4,8.9h-22.2c-5,0-9.2-2.4-11.6-6.7
				c-1.7-3-2.1-6.7-1-10c1-3.3,3.4-6.1,6.5-7.7l40.2-19.9h68.8L249.6,255.1z M276.9,215.8c-2.8,2.9-7.3,3.4-10.7,1.4
				c-1-0.6-15.5-9.8-24.6-14.9c-6-3.3-11.3-7.5-15.9-12.5c-3.4-3.7-7.5-8.2-10.8-11.8v-35c1,0.7,1.8,1.6,2.4,2.6
				c0,0,17.9,29.5,22.1,36.6c0.4,0.7,1.1,1.3,1.8,1.7c6.9,3.4,30.7,16.6,35.1,18.8C280.5,206.2,280.5,212.2,276.9,215.8z"/>
		</g>
	</g>
	<g>
		<g>
			<path d="M175,61.6c-17.1,0-31,13.9-31,31s13.9,31,31,31c17.1,0,31-13.9,31-31S192.1,61.6,175,61.6z M175,114.8
				c-12.2,0-22.1-9.9-22.1-22.1s9.9-22.1,22.1-22.1c12.2,0,22.1,9.9,22.1,22.1S187.2,114.8,175,114.8z"/>
		</g>
	</g>
</g>
</svg>
