<?xml version="1.0" encoding="utf-8"?>
<!-- Generator: Adobe Illustrator 23.0.4, SVG Export Plug-In . SVG Version: 6.00 Build 0)  -->
<!DOCTYPE svg PUBLIC "-//W3C//DTD SVG 1.1//EN" "http://www.w3.org/Graphics/SVG/1.1/DTD/svg11.dtd" [
	<!ENTITY ns_extend "http://ns.adobe.com/Extensibility/1.0/">
	<!ENTITY ns_ai "http://ns.adobe.com/AdobeIllustrator/10.0/">
	<!ENTITY ns_graphs "http://ns.adobe.com/Graphs/1.0/">
	<!ENTITY ns_vars "http://ns.adobe.com/Variables/1.0/">
	<!ENTITY ns_imrep "http://ns.adobe.com/ImageReplacement/1.0/">
	<!ENTITY ns_sfw "http://ns.adobe.com/SaveForWeb/1.0/">
	<!ENTITY ns_custom "http://ns.adobe.com/GenericCustomNamespace/1.0/">
	<!ENTITY ns_adobe_xpath "http://ns.adobe.com/XPath/1.0/">
]>
<svg version="1.1" id="Layer_1" xmlns:x="&ns_extend;" xmlns:i="&ns_ai;" xmlns:graph="&ns_graphs;"
	 xmlns="http://www.w3.org/2000/svg" xmlns:xlink="http://www.w3.org/1999/xlink" x="0px" y="0px" viewBox="0 0 350 350"
	 style="enable-background:new 0 0 350 350;" xml:space="preserve">
<style type="text/css">
	.st0{fill:#131720;}
	.st1{fill:#BC1010;}
	.st2{fill:none;stroke:#BC1010;stroke-width:7;stroke-linecap:round;stroke-linejoin:round;stroke-miterlimit:10;}
</style>
<metadata>
	<sfw  xmlns="&ns_sfw;">
		<slices></slices>
		<sliceSourceBounds  bottomLeftOrigin="true" height="2525.5" width="2316.8" x="-983" y="-1252.1"></sliceSourceBounds>
	</sfw>
</metadata>
<g>
	<g>
		<path class="st0" d="M321.5,7c11.9,0,21.5,9.7,21.5,21.5v292.9c0,11.9-9.7,21.5-21.5,21.5h-293C16.7,343,7,333.3,7,321.5v-293
			C7,16.7,16.7,7,28.5,7H321.5 M321.5,0h-293C12.8,0,0,12.8,0,28.5v292.9C0,337.2,12.8,350,28.5,350h292.9
			c15.8,0,28.5-12.8,28.5-28.5v-293C350,12.8,337.2,0,321.5,0L321.5,0z"/>
	</g>
</g>
<g>
	<path d="M175,156.6c28,0,50.8-22.8,50.8-50.8S203,55,175,55s-50.8,22.8-50.8,50.8S147,156.6,175,156.6z M175,64
		c23,0,41.8,18.8,41.8,41.8c0,23-18.8,41.8-41.8,41.8s-41.8-18.8-41.8-41.8C133.2,82.8,152,64,175,64z"/>
	<path d="M236.1,169.3c-16.2-3.6-37.9-5.5-61.1-5.5s-44.9,2-61.1,5.5C93.4,173.8,83,180.8,83,190v100.5c0,2.5,2,4.5,4.5,4.5
		s4.5-2,4.5-4.5V190c0-7.2,28.8-17.2,83-17.2c3.2,0,6.3,0,9.4,0.1l-10.2,74.5h-16c-9.7,0-17.6,7.9-17.6,17.6v12.4
		c0,9.7,7.9,17.6,17.6,17.6h91.2c9.7,0,17.6-7.9,17.6-17.6v-0.2v-0.8V190C267,180.8,256.6,173.8,236.1,169.3z M239.3,286h-61.2
		l15.4-112.7c12.5,0.6,24,1.8,33.9,3.5L239.3,286z M258,276.4v0.8c0,4.9-3.9,8.8-8.8,8.8h-0.9l-11.7-107.3
		c12.9,3.1,21.3,7.6,21.3,11.3V276.4z M169,286h-10.8c-4.7,0-8.6-3.9-8.6-8.6V265c0-4.7,3.9-8.6,8.6-8.6H173L169,286z"/>
</g>
</svg>
