<?xml version="1.0" encoding="utf-8"?>
<!-- Generator: Adobe Illustrator 23.0.4, SVG Export Plug-In . SVG Version: 6.00 Build 0)  -->
<!DOCTYPE svg PUBLIC "-//W3C//DTD SVG 1.1//EN" "http://www.w3.org/Graphics/SVG/1.1/DTD/svg11.dtd" [
	<!ENTITY ns_extend "http://ns.adobe.com/Extensibility/1.0/">
	<!ENTITY ns_ai "http://ns.adobe.com/AdobeIllustrator/10.0/">
	<!ENTITY ns_graphs "http://ns.adobe.com/Graphs/1.0/">
	<!ENTITY ns_vars "http://ns.adobe.com/Variables/1.0/">
	<!ENTITY ns_imrep "http://ns.adobe.com/ImageReplacement/1.0/">
	<!ENTITY ns_sfw "http://ns.adobe.com/SaveForWeb/1.0/">
	<!ENTITY ns_custom "http://ns.adobe.com/GenericCustomNamespace/1.0/">
	<!ENTITY ns_adobe_xpath "http://ns.adobe.com/XPath/1.0/">
]>
<svg version="1.1" id="Layer_1" xmlns:x="&ns_extend;" xmlns:i="&ns_ai;" xmlns:graph="&ns_graphs;"
	 xmlns="http://www.w3.org/2000/svg" xmlns:xlink="http://www.w3.org/1999/xlink" x="0px" y="0px" viewBox="0 0 350 350"
	 style="enable-background:new 0 0 350 350;" xml:space="preserve">
<style type="text/css">
	.st0{fill:#131720;}
	.st1{fill:#BC1010;}
</style>
<metadata>
	<sfw  xmlns="&ns_sfw;">
		<slices></slices>
		<sliceSourceBounds  bottomLeftOrigin="true" height="2525.5" width="2316.8" x="-983" y="-1252.1"></sliceSourceBounds>
	</sfw>
</metadata>
<g>
	<g>
		<path class="st0" d="M321.5,7c11.9,0,21.5,9.7,21.5,21.5v292.9c0,11.9-9.7,21.5-21.5,21.5h-293C16.7,343,7,333.3,7,321.5v-293
			C7,16.7,16.7,7,28.5,7H321.5 M321.5,0h-293C12.8,0,0,12.8,0,28.5v292.9C0,337.2,12.8,350,28.5,350h292.9
			c15.8,0,28.5-12.8,28.5-28.5v-293C350,12.8,337.2,0,321.5,0L321.5,0z"/>
	</g>
</g>
<g>
	<g>
		<path class="st0" d="M105.2,207.7L105.2,207.7l-3-3l-3,3h0l-36.4,36.4c-1.6,1.6-1.6,4.3,0,5.9c1.6,1.6,4.3,1.6,5.9,0L98,220.8
			v59.7c0,2.3,1.9,4.2,4.2,4.2c2.3,0,4.2-1.9,4.2-4.2v-59.7l29.2,29.2c0.8,0.8,1.9,1.2,3,1.2c1.1,0,2.2-0.4,3-1.2
			c1.6-1.6,1.6-4.3,0-5.9L105.2,207.7z"/>
		<path class="st0" d="M178,138C178,138,178,138,178,138l-3-3l-3,3c0,0,0,0,0,0l-36.4,36.4c-1.6,1.6-1.6,4.3,0,5.9
			c1.6,1.6,4.3,1.6,5.9,0l29.2-29.3v129.4c0,2.3,1.9,4.2,4.2,4.2c2.3,0,4.2-1.9,4.2-4.2V151.1l29.2,29.2c0.8,0.8,1.9,1.2,3,1.2
			c1.1,0,2.2-0.4,3-1.2c1.6-1.6,1.6-4.3,0-5.9L178,138z"/>
		<path class="st0" d="M287.2,104.7l-36.4-36.4c0,0,0,0,0,0l-3-3l-3,3h0l-36.4,36.4c-1.6,1.6-1.6,4.3,0,5.9c1.6,1.6,4.3,1.6,5.9,0
			l29.2-29.2v199.2c0,2.3,1.9,4.2,4.2,4.2c2.3,0,4.2-1.9,4.2-4.2V81.4l29.2,29.2c0.8,0.8,1.9,1.2,3,1.2c1.1,0,2.2-0.4,3-1.2
			C288.8,109,288.8,106.3,287.2,104.7z"/>
	</g>
</g>
</svg>
