<?xml version="1.0" encoding="utf-8"?>
<!-- Generator: Adobe Illustrator 23.0.4, SVG Export Plug-In . SVG Version: 6.00 Build 0)  -->
<!DOCTYPE svg PUBLIC "-//W3C//DTD SVG 1.1//EN" "http://www.w3.org/Graphics/SVG/1.1/DTD/svg11.dtd" [
	<!ENTITY ns_extend "http://ns.adobe.com/Extensibility/1.0/">
	<!ENTITY ns_ai "http://ns.adobe.com/AdobeIllustrator/10.0/">
	<!ENTITY ns_graphs "http://ns.adobe.com/Graphs/1.0/">
	<!ENTITY ns_vars "http://ns.adobe.com/Variables/1.0/">
	<!ENTITY ns_imrep "http://ns.adobe.com/ImageReplacement/1.0/">
	<!ENTITY ns_sfw "http://ns.adobe.com/SaveForWeb/1.0/">
	<!ENTITY ns_custom "http://ns.adobe.com/GenericCustomNamespace/1.0/">
	<!ENTITY ns_adobe_xpath "http://ns.adobe.com/XPath/1.0/">
]>
<svg version="1.1" id="Layer_1" xmlns:x="&ns_extend;" xmlns:i="&ns_ai;" xmlns:graph="&ns_graphs;"
	 xmlns="http://www.w3.org/2000/svg" xmlns:xlink="http://www.w3.org/1999/xlink" x="0px" y="0px" viewBox="0 0 350 350"
	 style="enable-background:new 0 0 350 350;" xml:space="preserve">
<style type="text/css">
	.st0{fill:#131720;}
	.st1{fill:#BC1010;}
	.st2{fill:none;stroke:#BC1010;stroke-width:7;stroke-linecap:round;stroke-linejoin:round;stroke-miterlimit:10;}
</style>
<metadata>
	<sfw  xmlns="&ns_sfw;">
		<slices></slices>
		<sliceSourceBounds  bottomLeftOrigin="true" height="2525.5" width="2316.8" x="-983" y="-1252.1"></sliceSourceBounds>
	</sfw>
</metadata>
<g>
	<g>
		<path class="st0" d="M321.5,7c11.9,0,21.5,9.7,21.5,21.5v292.9c0,11.9-9.7,21.5-21.5,21.5h-293C16.7,343,7,333.3,7,321.5v-293
			C7,16.7,16.7,7,28.5,7H321.5 M321.5,0h-293C12.8,0,0,12.8,0,28.5v292.9C0,337.2,12.8,350,28.5,350h292.9
			c15.8,0,28.5-12.8,28.5-28.5v-293C350,12.8,337.2,0,321.5,0L321.5,0z"/>
	</g>
</g>
<g>
	<g>
		<path class="st0" d="M264.1,117.8h-13.5c-1.9,0-3.4,1.5-3.4,3.4v3.4c0-1.9-1.5-3.4-3.4-3.4h-10.1c-1.8,0-3.2,1.4-3.4,3.1l-0.2,3.6
			h-6.5v-6.7c0-1.9-1.5-3.4-3.4-3.4H207c-1.9,0-3.4,1.5-3.4,3.4v20.2c0,1.9,1.5,3.4,3.4,3.4h13.5c1.9,0,3.4-1.5,3.4-3.4v-6.7h6.1
			l-1.8,27.5c-0.3,3.5-3.2,6.1-6.7,6.1h-21.1v-1.4c0-1.3-0.8-2.5-1.9-3c-4.6-2.1-9.4-3.6-14.4-4.4c-0.5-0.1-1.1,0-1.6,0.2
			c-1.9-0.6-3.7-1-5.7-1.2v-9.2c1-0.5,2-1.1,2.9-1.7c11.3-7.9,20.7-15.9,20.7-32.9v-3.4c0-10.2-4.3-20-11.7-27
			c-13.1-12.2-33-13.4-47.5-2.8c-14.6-2.6-28.6,7.1-31.2,21.7c-0.3,1.6-0.4,3.1-0.4,4.7v50.5c0,1.9,1.5,3.4,3.4,3.4
			c12.9,0,25.2-4.9,34.5-13.8c0.8,0.5,1.6,1,2.5,1.5v9.2c-1.9,0.2-3.8,0.6-5.7,1.2c-0.5-0.2-1.1-0.2-1.6-0.2
			c-5,0.8-9.8,2.3-14.4,4.4c-1.2,0.6-1.9,1.7-1.9,3v0.1c-12.7,14.3-19.9,32.7-20.2,51.8c0,9.2,0.4,19.8,3.2,26.9h-6.5v-6.7
			c0-1.9-1.5-3.4-3.4-3.4H85.9c-1.9,0-3.4,1.5-3.4,3.4v20.2c0,1.9,1.5,3.4,3.4,3.4h13.5c1.9,0,3.4-1.5,3.4-3.4v-6.7H122
			c-3.8,7.3-5.8,15.4-5.8,23.5h6.7c0-5.8,1.2-11.5,3.4-16.9l0,0c0,1.9,1.5,3.4,3.4,3.4H143c1.9,0,3.4-1.5,3.4-3.4v-13.5h42.1
			l1.9,2.4c6.3,7.9,9.8,17.7,9.8,27.9h6.7c0-11.6-4-23-11.2-32.1l-2.6-3.2l-1.3-3.9c-3.1-9.4-2.8-19.6,0.8-28.8l0.2-0.5
			c4.2-1.3,7.1-5.1,7.4-9.4v-0.1l36.5-7.8c6.2-1.4,10.6-6.8,10.6-13.2v-35.6c0,1.9,1.5,3.4,3.4,3.4h13.5c1.9,0,3.4-1.5,3.4-3.4
			v-20.2C267.5,119.3,266,117.8,264.1,117.8z M217.1,138h-6.7v-13.5h6.7V138z M95.9,255.7h-6.7v-13.5h6.7V255.7z M122,244.2l0.2,1.4
			h-5.6c-1.9-2.7-3.9-9.6-3.9-26.9c0.3-14.8,5-29.2,13.5-41.4v20.4C121.8,207.8,120.3,234,122,244.2z M161.2,80.9
			c16-1.1,30,10.5,32,26.3L174.8,98c-0.6-0.3-1.4-0.4-2.1-0.3l-39.1,6.9C136.4,91.3,147.7,81.6,161.2,80.9z M116.1,154.7v-47
			c0-10.4,7.9-19.1,18.3-20.1c-5.4,6.6-8.3,14.9-8.2,23.5v3.4c0,14.4,6.7,22.3,15.6,29.2C134.7,150.1,125.7,154,116.1,154.7z
			 M132.9,114.5v-3l39.9-7l20.7,10.3c-0.1,12.5-5.8,18.8-17.8,27.1c-7.5,5.2-17.5,5.2-25,0C138.7,133.5,132.9,127.3,132.9,114.5z
			 M146.4,165.8c2.2-0.6,4.5-0.9,6.7-0.9c1.9,0,3.4-1.5,3.4-3.4v-9.8c4.4,1.2,9,1.2,13.5,0v9.8c0,1.9,1.5,3.4,3.4,3.4
			c2.3,0,4.5,0.3,6.7,0.9v5.4l-16.8,3.6l-16.8-3.6L146.4,165.8L146.4,165.8z M128.1,235.9c-0.2-10.1,0.7-20.1,2.6-30
			c0.9,0.6,1.8,1.1,2.8,1.5c3.4,9,3.5,19,0.4,28.1h-4.3C129.1,235.6,128.6,235.7,128.1,235.9z M139.7,255.7H133v-13.5h6.7V255.7z
			 M146.4,238.9c0-1.9-1.5-3.4-3.4-3.4h-2c2.5-8.8,2.5-18.1,0-26.9h44.3c-3.2,9.9-3.1,20.5,0.2,30.3L146.4,238.9L146.4,238.9z
			 M193.5,198c0,1.8-2.9,3.9-6.7,3.9h-47.1c-3.9,0-6.7-2-6.7-3.9v-29c2.2-0.9,4.4-1.6,6.7-2.2v7.1c0,1.6,1.1,3,2.7,3.3l20.2,4.3
			c0.5,0.1,0.9,0.1,1.4,0l20.2-4.3c1.6-0.3,2.7-1.7,2.7-3.3v-7.1c2.3,0.6,4.5,1.3,6.7,2.2L193.5,198L193.5,198z M235.3,183.5
			l-35.1,7.5v-16h21.1c7,0,12.8-5.3,13.4-12.3l2.3-34.8h3.6v49l0,0C240.6,180.1,238.4,182.8,235.3,183.5z M260.8,138h-6.7v-13.5h6.7
			V138z"/>
	</g>
</g>
</svg>
