<?xml version="1.0" encoding="utf-8"?>
<!-- Generator: Adobe Illustrator 23.0.4, SVG Export Plug-In . SVG Version: 6.00 Build 0)  -->
<!DOCTYPE svg PUBLIC "-//W3C//DTD SVG 1.1//EN" "http://www.w3.org/Graphics/SVG/1.1/DTD/svg11.dtd" [
	<!ENTITY ns_extend "http://ns.adobe.com/Extensibility/1.0/">
	<!ENTITY ns_ai "http://ns.adobe.com/AdobeIllustrator/10.0/">
	<!ENTITY ns_graphs "http://ns.adobe.com/Graphs/1.0/">
	<!ENTITY ns_vars "http://ns.adobe.com/Variables/1.0/">
	<!ENTITY ns_imrep "http://ns.adobe.com/ImageReplacement/1.0/">
	<!ENTITY ns_sfw "http://ns.adobe.com/SaveForWeb/1.0/">
	<!ENTITY ns_custom "http://ns.adobe.com/GenericCustomNamespace/1.0/">
	<!ENTITY ns_adobe_xpath "http://ns.adobe.com/XPath/1.0/">
]>
<svg version="1.1" id="Layer_1" xmlns:x="&ns_extend;" xmlns:i="&ns_ai;" xmlns:graph="&ns_graphs;"
	 xmlns="http://www.w3.org/2000/svg" xmlns:xlink="http://www.w3.org/1999/xlink" x="0px" y="0px" viewBox="0 0 350 350"
	 style="enable-background:new 0 0 350 350;" xml:space="preserve">
<style type="text/css">
	.st0{fill:#131720;}
	.st1{fill:#BC1010;}
</style>
<metadata>
	<sfw  xmlns="&ns_sfw;">
		<slices></slices>
		<sliceSourceBounds  bottomLeftOrigin="true" height="2525.5" width="2316.8" x="-983" y="-1252.1"></sliceSourceBounds>
	</sfw>
</metadata>
<g>
	<g>
		<path class="st0" d="M321.5,7c11.9,0,21.5,9.7,21.5,21.5v292.9c0,11.9-9.7,21.5-21.5,21.5h-293C16.7,343,7,333.3,7,321.5v-293
			C7,16.7,16.7,7,28.5,7H321.5 M321.5,0h-293C12.8,0,0,12.8,0,28.5v292.9C0,337.2,12.8,350,28.5,350h292.9
			c15.8,0,28.5-12.8,28.5-28.5v-293C350,12.8,337.2,0,321.5,0L321.5,0z"/>
	</g>
</g>
<g>
	<path class="st0" d="M284,286.1c-33.4,3.7-59.9-11.1-60.2-11.2c-0.9-0.5-2-0.7-3-0.4c-0.4,0.1-42.5,11.4-76.3,3.9
		c-21.1-4.7-41-19.6-55.6-30.4c-2-1.5-3.8-2.8-5.5-4.1c-2.4-1.7-6.1-3.2-9.5-4.5c-1.5-0.6-3.5-1.4-4-1.6c-0.4-0.3-0.6-0.7-0.6-1.2
		v-9.1c0.2-7.2,30.3-117.5,34.9-131.6c0.1-0.2,0.6-0.5,0.9-0.6l59.5-27.2l19.2,25c0.9,1.3,0.9,3.1-0.2,4.3l-19,21.3
		c-1.2,1.4-3.3,1.5-4.6,0.5l-7.7-7.1c-0.9-0.8-2.2-1.1-3.4-0.9c-1.2,0.2-2.3,1.1-2.8,2.2c-0.6,1.3-6.5,2.8-12.4,2.9l-1.9-0.2
		c-1.5-0.2-3.1,0.6-3.8,2c-0.8,1.4-0.6,3.1,0.3,4.3c1.7,2.1,2.9,3.8,3.7,4.8l3.8,64.7c-2.4,9.2-4.5,11.8-5.1,12.3
		c-1.6,0.5-2.7,2-2.7,3.7c0,2.2,1.8,3.9,3.9,3.9c4.4,0,8.2-5.8,11.2-17.2c31.1-23.3,58.2-1.3,60.4,0.5c9.9,9.9,10.5,16.5,10.5,16.8
		c0,2.1,1.8,3.8,3.9,3.8c2.2,0,3.9-1.8,3.9-3.9c0-0.9-0.3-8.6-10.4-19.8c9.5-11.7,20.4-18.5,32.4-20c20.6-2.5,38,11.3,38.2,11.5
		c1.7,1.4,4.1,1.1,5.5-0.6c1.4-1.7,1.1-4.1-0.6-5.5c-0.8-0.7-20-16.1-44-13.2c-14,1.7-26.6,9.3-37.4,22.5c-8.8-6-34-19.5-62.2-1.8
		l-3.5-59.5c0-0.6-0.2-1.3-0.6-1.8c3.5-0.4,7.7-1.3,10.7-3.3l5,4.6c4.7,3.9,11.6,3.4,15.6-1.1l19-21.3c3.5-3.9,3.8-9.9,0.6-14.2
		l-21.2-27.6c-1.1-1.4-3.1-1.9-4.7-1.2L102,88.1c-0.7,0.3-4,1.9-5,5.2c-2.2,6.6-35.4,125-35.4,134.2v9.1c0,2.9,1.3,5.6,3.6,7.4
		c1.1,0.9,2.8,1.6,6,2.8c2.6,1,6.1,2.3,7.6,3.5c1.7,1.3,3.5,2.6,5.5,4.1c15.1,11.3,35.8,26.7,58.5,31.8c32.4,7.2,70.4-1.5,78.5-3.6
		c5.4,2.8,25.4,12.1,51.5,12.1c3.9,0,7.8-0.2,11.9-0.7c2.1-0.2,3.7-2.2,3.5-4.3C288.1,287.4,286.2,285.8,284,286.1z"/>
	<path class="st0" d="M264.9,238.7c-0.2-2-1.9-3.5-3.9-3.5c-2.2,0-3.9,1.8-3.9,3.9c0,2.6,1.9,11.5,26.7,15.6c0.2,0,0.4,0.1,0.6,0.1
		c1.9,0,3.5-1.4,3.9-3.3c0.4-2.1-1.1-4.1-3.2-4.5C267.8,244.1,265.1,239.2,264.9,238.7z"/>
	<path class="st0" d="M221.7,103h11.9V114c0,2.2,1.8,3.9,3.9,3.9h31.3c2.2,0,3.9-1.8,3.9-3.9V103h11.7c1.5,0,2.9-0.9,3.5-2.2
		c0.7-1.3,0.5-3-0.4-4.1l-31.4-39.7c-1.5-1.9-4.7-1.9-6.1,0l-31.4,39.7c-0.9,1.2-1.1,2.8-0.4,4.1C218.9,102.1,220.2,103,221.7,103z
		 M253.1,65.6l23.3,29.5h-7.6c-2.2,0-3.9,1.8-3.9,3.9v11.1h-23.5V99.1c0-2.2-1.8-3.9-3.9-3.9h-7.8L253.1,65.6z"/>
	<path class="st0" d="M272.7,125.8c0-2.2-1.8-3.9-3.9-3.9h-31.3c-2.2,0-3.9,1.8-3.9,3.9v11.7c0,2.2,1.8,3.9,3.9,3.9h31.3
		c2.2,0,3.9-1.8,3.9-3.9V125.8z M264.9,133.6h-23.5v-3.9h23.5V133.6z"/>
	<path class="st0" d="M268.8,145.3h-31.3c-2.2,0-3.9,1.8-3.9,3.9c0,2.2,1.8,3.9,3.9,3.9h31.3c2.2,0,3.9-1.8,3.9-3.9
		C272.7,147.1,271,145.3,268.8,145.3z"/>
	<path class="st0" d="M189.8,258.8c-51.2,11-73.1-24.1-74-25.6c-1.1-1.8-3.5-2.4-5.4-1.3c-1.9,1.1-2.5,3.5-1.3,5.4
		c0.3,0.4,6.5,10.6,19.8,19.3c9.2,6,23.1,12.1,42.1,12.1c6.3,0,13.1-0.7,20.5-2.3c2.1-0.5,3.5-2.5,3-4.6
		C194,259.7,191.9,258.3,189.8,258.8z"/>
</g>
</svg>
