<?xml version="1.0" encoding="utf-8"?>
<!-- Generator: Adobe Illustrator 23.0.4, SVG Export Plug-In . SVG Version: 6.00 Build 0)  -->
<!DOCTYPE svg PUBLIC "-//W3C//DTD SVG 1.1//EN" "http://www.w3.org/Graphics/SVG/1.1/DTD/svg11.dtd" [
	<!ENTITY ns_extend "http://ns.adobe.com/Extensibility/1.0/">
	<!ENTITY ns_ai "http://ns.adobe.com/AdobeIllustrator/10.0/">
	<!ENTITY ns_graphs "http://ns.adobe.com/Graphs/1.0/">
	<!ENTITY ns_vars "http://ns.adobe.com/Variables/1.0/">
	<!ENTITY ns_imrep "http://ns.adobe.com/ImageReplacement/1.0/">
	<!ENTITY ns_sfw "http://ns.adobe.com/SaveForWeb/1.0/">
	<!ENTITY ns_custom "http://ns.adobe.com/GenericCustomNamespace/1.0/">
	<!ENTITY ns_adobe_xpath "http://ns.adobe.com/XPath/1.0/">
]>
<svg version="1.1" id="Layer_1" xmlns:x="&ns_extend;" xmlns:i="&ns_ai;" xmlns:graph="&ns_graphs;"
	 xmlns="http://www.w3.org/2000/svg" xmlns:xlink="http://www.w3.org/1999/xlink" x="0px" y="0px" viewBox="0 0 350 350"
	 style="enable-background:new 0 0 350 350;" xml:space="preserve">
<style type="text/css">
	.st0{fill:#131720;}
	.st1{fill:#BC1010;}
	.st2{fill:none;stroke:#BC1010;stroke-width:7;stroke-linecap:round;stroke-linejoin:round;stroke-miterlimit:10;}
</style>
<metadata>
	<sfw  xmlns="&ns_sfw;">
		<slices></slices>
		<sliceSourceBounds  bottomLeftOrigin="true" height="2525.5" width="2316.8" x="-983" y="-1252.1"></sliceSourceBounds>
	</sfw>
</metadata>
<g>
	<g>
		<path class="st0" d="M321.5,7c11.9,0,21.5,9.7,21.5,21.5v292.9c0,11.9-9.7,21.5-21.5,21.5h-293C16.7,343,7,333.3,7,321.5v-293
			C7,16.7,16.7,7,28.5,7H321.5 M321.5,0h-293C12.8,0,0,12.8,0,28.5v292.9C0,337.2,12.8,350,28.5,350h292.9
			c15.8,0,28.5-12.8,28.5-28.5v-293C350,12.8,337.2,0,321.5,0L321.5,0z"/>
	</g>
</g>
<g>
	<path d="M283,167.7c-3.4-3.1-8-5.1-12.7-5.3c-5.3-0.3-10.2,1.6-13.9,5.3l-25.2,25c-0.5-0.9-1.1-1.7-1.7-2.4
		c-3.1-3.7-7.6-5.7-12.8-5.7h-35.3c-6.7,0-13.1-0.9-19.3-2.6c-16-4.4-31.3-1.2-44.3,9.4c-5.3,4.3-9.1,9-11.5,12.4l-6.3-6.1
		c-0.8-0.8-2-1.3-3.1-1.3c0,0,0,0,0,0c-1.2,0-2.4,0.5-3.2,1.4l-30.8,31.9c-0.8,0.9-1.3,2-1.2,3.2c0,1.2,0.5,2.3,1.4,3.1l52,49.5
		c0.9,0.8,2,1.2,3.1,1.2c1.2,0,2.3-0.5,3.2-1.3l30.5-31.3c0.8-0.9,1.3-2,1.3-3.2c0-1.2-0.5-2.3-1.4-3.1l-2.7-2.6l6.1-0.7
		c3.7-0.4,7.4-0.6,11.1-0.6h53.7c8.7,0,16.1-1.9,22-5.7c0,0,0.1-0.1,0.1-0.1c2.1-1.5,4-3.2,5.7-5.2l36.2-42.6
		C290.2,183,289.8,173.9,283,167.7z M118,275.9l-45.6-43.4L97,207l45.3,44L118,275.9z M277.2,184.5L241,227.1
		c-1.1,1.4-2.5,2.6-3.9,3.6c-4.4,2.8-10.2,4.2-17.2,4.2h-53.7c-4,0-8.1,0.2-12.1,0.7l-13.4,1.5l-28-27.1c1.9-2.9,5.5-7.5,10.7-11.8
		c10.8-8.8,23-11.4,36.3-7.7c6.9,1.9,14.2,2.9,21.7,2.9h35.3c6.3,0,8,5.5,8,8.7c0,2.4-0.8,4.6-2.1,6.2c-1.4,1.7-3.5,2.6-6.1,2.6
		h-30.7c-2.5,0-4.5,2-4.5,4.5s2,4.5,4.5,4.5h30.7c5.2,0,9.8-2,12.9-5.7c2.6-3.1,4.1-7.1,4.2-11.4l29-28.7c4.2-4.2,10.6-3.1,14.3,0.2
		C278.9,176,281.4,179.6,277.2,184.5z"/>
	<path d="M172,214.1c-0.6-2.4-3-3.9-5.4-3.3c-2.4,0.6-3.9,3-3.3,5.4l0,0.2c0.5,2.1,2.3,3.4,4.3,3.4c0.3,0,0.7,0,1-0.1
		c2.4-0.6,3.9-3,3.3-5.4L172,214.1z"/>
	<path d="M91.8,157.5h43.5c2.4,0,4.6-0.8,6.3-2.1c1.8,1.3,4,2.1,6.3,2.1h43.5c2.4,0,4.6-0.8,6.3-2.1c1.8,1.3,4,2.1,6.3,2.1h43.5
		c6,0,10.8-4.8,10.8-10.8v-20.3c0-9.1-5.1-17-12.7-20.9c3.7-4.5,5.9-10.2,5.9-16.4c0-14.2-11.5-25.7-25.7-25.7
		c-14.2,0-25.7,11.5-25.7,25.7c0,6.2,2.2,11.9,5.9,16.4c-3.3,1.7-6.1,4.1-8.3,7.1c-2.1-3-5-5.4-8.3-7.1c3.7-4.5,5.9-10.2,5.9-16.4
		c0-14.2-11.5-25.7-25.7-25.7s-25.7,11.5-25.7,25.7c0,6.2,2.2,11.9,5.9,16.4c-3.3,1.7-6.1,4.1-8.3,7.1c-2.1-3-5-5.4-8.3-7.1
		c3.7-4.5,5.9-10.2,5.9-16.4c0-14.2-11.5-25.7-25.7-25.7c-14.2,0-25.7,11.5-25.7,25.7c0,6.2,2.2,11.9,5.9,16.4
		c-7.6,3.9-12.7,11.8-12.7,20.9v20.3C81,152.6,85.8,157.5,91.8,157.5z M225.8,72.3c9.3,0,16.8,7.5,16.8,16.8
		c0,9.3-7.5,16.8-16.8,16.8c-9.3,0-16.8-7.5-16.8-16.8C209,79.8,216.5,72.3,225.8,72.3z M214.2,112c3.5,1.8,7.4,2.8,11.6,2.8
		c4.2,0,8.1-1,11.6-2.8c6.9,1.2,12,7.2,12,14.4v20.3c0,1-0.8,1.9-1.9,1.9h-43.5c-1,0-1.9-0.8-1.9-1.9v-20.3
		C202.2,119.2,207.3,113.2,214.2,112z M169.6,72.3c9.3,0,16.8,7.5,16.8,16.8c0,9.3-7.5,16.8-16.8,16.8c-9.3,0-16.8-7.5-16.8-16.8
		S160.4,72.3,169.6,72.3z M158.1,112c3.5,1.8,7.4,2.8,11.6,2.8c4.2,0,8.1-1,11.6-2.8c6.9,1.2,12,7.2,12,14.4v20.3
		c0,1-0.8,1.9-1.9,1.9h-43.5c-1,0-1.9-0.8-1.9-1.9v-20.3C146,119.2,151.1,113.2,158.1,112z M113.5,72.3c9.3,0,16.8,7.5,16.8,16.8
		c0,9.3-7.5,16.8-16.8,16.8s-16.8-7.5-16.8-16.8C96.7,79.8,104.2,72.3,113.5,72.3z M89.9,126.4c0-7.2,5.1-13.1,12-14.4
		c3.5,1.8,7.4,2.8,11.6,2.8s8.1-1,11.6-2.8c6.9,1.2,12,7.2,12,14.4v20.3c0,1-0.8,1.9-1.9,1.9H91.8c-1,0-1.9-0.8-1.9-1.9V126.4z"/>
</g>
</svg>
