<?xml version="1.0" encoding="utf-8"?>
<!-- Generator: Adobe Illustrator 23.0.4, SVG Export Plug-In . SVG Version: 6.00 Build 0)  -->
<!DOCTYPE svg PUBLIC "-//W3C//DTD SVG 1.1//EN" "http://www.w3.org/Graphics/SVG/1.1/DTD/svg11.dtd" [
	<!ENTITY ns_extend "http://ns.adobe.com/Extensibility/1.0/">
	<!ENTITY ns_ai "http://ns.adobe.com/AdobeIllustrator/10.0/">
	<!ENTITY ns_graphs "http://ns.adobe.com/Graphs/1.0/">
	<!ENTITY ns_vars "http://ns.adobe.com/Variables/1.0/">
	<!ENTITY ns_imrep "http://ns.adobe.com/ImageReplacement/1.0/">
	<!ENTITY ns_sfw "http://ns.adobe.com/SaveForWeb/1.0/">
	<!ENTITY ns_custom "http://ns.adobe.com/GenericCustomNamespace/1.0/">
	<!ENTITY ns_adobe_xpath "http://ns.adobe.com/XPath/1.0/">
]>
<svg version="1.1" id="Layer_1" xmlns:x="&ns_extend;" xmlns:i="&ns_ai;" xmlns:graph="&ns_graphs;"
	 xmlns="http://www.w3.org/2000/svg" xmlns:xlink="http://www.w3.org/1999/xlink" x="0px" y="0px" viewBox="0 0 350 350"
	 style="enable-background:new 0 0 350 350;" xml:space="preserve">
<style type="text/css">
	.st0{fill:#131720;}
	.st1{fill:#BC1010;}
</style>
<metadata>
	<sfw  xmlns="&ns_sfw;">
		<slices></slices>
		<sliceSourceBounds  bottomLeftOrigin="true" height="2525.5" width="2316.8" x="-983" y="-1252.1"></sliceSourceBounds>
	</sfw>
</metadata>
<g>
	<g>
		<path class="st0" d="M321.5,7c11.9,0,21.5,9.7,21.5,21.5v292.9c0,11.9-9.7,21.5-21.5,21.5h-293C16.7,343,7,333.3,7,321.5v-293
			C7,16.7,16.7,7,28.5,7H321.5 M321.5,0h-293C12.8,0,0,12.8,0,28.5v292.9C0,337.2,12.8,350,28.5,350h292.9
			c15.8,0,28.5-12.8,28.5-28.5v-293C350,12.8,337.2,0,321.5,0L321.5,0z"/>
	</g>
</g>
<g>
	<path class="st0" d="M258.8,125.7c-14.9,0-27.1,12.1-27.1,27.1c0,14.9,12.1,27.1,27.1,27.1s27.1-12.1,27.1-27.1
		C285.9,137.9,273.7,125.7,258.8,125.7z M258.8,170.1c-9.5,0-17.3-7.8-17.3-17.3c0-9.5,7.8-17.3,17.3-17.3c9.5,0,17.3,7.8,17.3,17.3
		C276.1,162.4,268.3,170.1,258.8,170.1z"/>
	<path class="st0" d="M176.4,179.6c5.4,0.3,8.7,0.3,12.3,0.3l1.1,0h2l11.1,44.3c1.3,5.1,4.5,9.4,9,12.1c4.5,2.7,9.8,3.5,14.9,2.2
		c10.5-2.6,17-13.3,14.3-23.9l-14.7-58.9c-2.1-8.9-10-15.1-19.2-15.1h-20.6c-32.7,0-67-9.8-91.7-26.3c-4.4-2.9-9.6-4-14.8-2.9
		c-5.1,1-9.6,4-12.5,8.4c-6,9-3.6,21.3,5.5,27.3c6.3,4.2,13.2,8.1,20.6,11.7l2.1,1l-31.1,72.5c-0.5,1.2-0.5,2.5,0,3.7
		c0.5,1.2,1.4,2.2,2.6,2.7c2.5,1.1,5.4-0.1,6.4-2.6l31-72.4l2.3,0.9c7.2,2.9,14.8,5.4,22.4,7.5l1.4,0.4l6.8,27.3h-19.2
		c-10.9,0-19.7,8.8-19.7,19.6c0,10.9,8.8,19.7,19.7,19.7h44.4c6.1,0,11.8-2.8,15.5-7.6c3.8-4.8,5.1-11,3.6-16.9l-8.8-35.1
		L176.4,179.6z M99.4,150.7l-2.4-1.2c-6.7-3.3-13-6.9-18.8-10.7c-2.2-1.5-3.7-3.7-4.2-6.3c-0.5-2.6,0-5.2,1.5-7.4
		c1.5-2.2,3.7-3.7,6.3-4.2c2.6-0.5,5.2,0,7.5,1.5c4.9,3.3,10.2,6.3,15.8,9.1l2.1,1.1L99.4,150.7z M110.8,155.6l-2.4-0.9l7.8-18.2
		l2.3,0.9c21.2,8.3,45.4,12.9,68,12.9H207c4.5,0,8.4,3,9.6,7.3l0,0.1l14.8,59.2c1.3,5.3-1.9,10.7-7.2,12c-0.8,0.2-1.6,0.3-2.4,0.3
		c-1.7,0-3.5-0.5-5-1.4c-2.3-1.4-3.9-3.5-4.6-6.1l-12-48c-0.5-2.2-2.5-3.7-4.7-3.7l-2.3,0C178.5,170.2,148,170.3,110.8,155.6z
		 M170.5,225.5c-1.9,2.4-4.7,3.8-7.8,3.8h-44.4c-5.5,0-9.9-4.5-9.9-9.9c0-5.5,4.4-9.9,9.9-9.9h25.4c1.5,0,2.9-0.7,3.9-1.9
		c0.9-1.2,1.3-2.7,0.9-4.2l-7.1-28.4l3.9,0.8c5.2,1,10.5,1.9,15.7,2.5l1.7,0.2l9.6,38.5C173,220,172.4,223.1,170.5,225.5z"/>
</g>
</svg>
